<svg width="24" height="20" viewBox="0 0 24 20" fill="none" xmlns="http://www.w3.org/2000/svg">
<path fill-rule="evenodd" clip-rule="evenodd" d="M16 4C16.5304 4 17.0391 3.78929 17.4142 3.41421C17.7893 3.03914 18 2.53043 18 2C18 1.46957 17.7893 0.960859 17.4142 0.585786C17.0391 0.210714 16.5304 0 16 0C15.4696 0 14.9609 0.210714 14.5858 0.585786C14.2107 0.960859 14 1.46957 14 2C14 2.53043 14.2107 3.03914 14.5858 3.41421C14.9609 3.78929 15.4696 4 16 4ZM13.243 3.53C13.4058 3.57079 13.5557 3.6519 13.6789 3.76584C13.8021 3.87978 13.8946 4.0229 13.948 4.182C14.13 4.725 14.384 5.2 14.697 5.6C15.559 6.7 16.95 7.328 18.836 7.014C18.9673 6.98807 19.1025 6.98877 19.2336 7.01605C19.3646 7.04334 19.4888 7.09665 19.5989 7.17284C19.709 7.24903 19.8026 7.34654 19.8743 7.45959C19.946 7.57265 19.9942 7.69894 20.0162 7.83098C20.0381 7.96303 20.0334 8.09813 20.0021 8.2283C19.9709 8.35847 19.9139 8.48104 19.8344 8.58875C19.7549 8.69647 19.6547 8.78713 19.5395 8.85537C19.4243 8.9236 19.2966 8.96803 19.164 8.986C17.028 9.342 15.179 8.799 13.844 7.605L11.129 9.987L12.752 11.841C12.9118 12.0233 13 12.2575 13 12.5V17C13 17.2652 12.8946 17.5196 12.7071 17.7071C12.5196 17.8946 12.2652 18 12 18C11.7348 18 11.4804 17.8946 11.2929 17.7071C11.1054 17.5196 11 17.2652 11 17V12.876L8.969 10.556L8.925 10.506C8.685 10.239 8.285 9.791 8.111 9.263C8.005 8.938 7.971 8.563 8.086 8.167C8.196 7.783 8.424 7.457 8.706 7.18L8.72 7.167L12.313 3.773C12.4351 3.65764 12.5843 3.5749 12.7469 3.53243C12.9094 3.48996 13.0801 3.48913 13.243 3.53ZM2 15C2 14.2044 2.31607 13.4413 2.87868 12.8787C3.44129 12.3161 4.20435 12 5 12C5.79565 12 6.55871 12.3161 7.12132 12.8787C7.68393 13.4413 8 14.2044 8 15C8 15.7956 7.68393 16.5587 7.12132 17.1213C6.55871 17.6839 5.79565 18 5 18C4.20435 18 3.44129 17.6839 2.87868 17.1213C2.31607 16.5587 2 15.7956 2 15ZM5 10C3.67392 10 2.40215 10.5268 1.46447 11.4645C0.526784 12.4021 0 13.6739 0 15C0 16.3261 0.526784 17.5979 1.46447 18.5355C2.40215 19.4732 3.67392 20 5 20C6.32608 20 7.59785 19.4732 8.53553 18.5355C9.47322 17.5979 10 16.3261 10 15C10 13.6739 9.47322 12.4021 8.53553 11.4645C7.59785 10.5268 6.32608 10 5 10ZM16 15C16 14.2044 16.3161 13.4413 16.8787 12.8787C17.4413 12.3161 18.2044 12 19 12C19.7956 12 20.5587 12.3161 21.1213 12.8787C21.6839 13.4413 22 14.2044 22 15C22 15.7956 21.6839 16.5587 21.1213 17.1213C20.5587 17.6839 19.7956 18 19 18C18.2044 18 17.4413 17.6839 16.8787 17.1213C16.3161 16.5587 16 15.7956 16 15ZM19 10C17.6739 10 16.4021 10.5268 15.4645 11.4645C14.5268 12.4021 14 13.6739 14 15C14 16.3261 14.5268 17.5979 15.4645 18.5355C16.4021 19.4732 17.6739 20 19 20C20.3261 20 21.5979 19.4732 22.5355 18.5355C23.4732 17.5979 24 16.3261 24 15C24 13.6739 23.4732 12.4021 22.5355 11.4645C21.5979 10.5268 20.3261 10 19 10Z" fill="white"/>
</svg>
