<svg width="32" height="33" viewBox="0 0 32 33" fill="none" xmlns="http://www.w3.org/2000/svg">
<ellipse cx="16" cy="16.1149" rx="16" ry="16.1098" fill="#252525"/>
<path fill-rule="evenodd" clip-rule="evenodd" d="M20 10.0738C20.5304 10.0738 21.0391 9.86161 21.4142 9.48396C21.7893 9.10632 22 8.59412 22 8.06005C22 7.52598 21.7893 7.01378 21.4142 6.63613C21.0391 6.25849 20.5304 6.04633 20 6.04633C19.4696 6.04633 18.9609 6.25849 18.5858 6.63613C18.2107 7.01378 18 7.52598 18 8.06005C18 8.59412 18.2107 9.10632 18.5858 9.48396C18.9609 9.86161 19.4696 10.0738 20 10.0738ZM17.243 9.60055C17.4058 9.64162 17.5557 9.72328 17.6789 9.838C17.8021 9.95273 17.8946 10.0968 17.948 10.257C18.13 10.8037 18.384 11.282 18.697 11.6847C19.559 12.7923 20.95 13.4246 22.836 13.1084C22.9673 13.0823 23.1025 13.083 23.2336 13.1105C23.3646 13.138 23.4888 13.1917 23.5989 13.2684C23.709 13.3451 23.8026 13.4433 23.8743 13.5571C23.946 13.6709 23.9942 13.7981 24.0162 13.931C24.0381 14.064 24.0334 14.2 24.0021 14.3311C23.9709 14.4621 23.9139 14.5856 23.8344 14.694C23.7549 14.8025 23.6547 14.8937 23.5395 14.9625C23.4243 15.0312 23.2966 15.0759 23.164 15.094C21.028 15.4524 19.179 14.9057 17.844 13.7035L15.129 16.1018L16.752 17.9686C16.9118 18.1522 17 18.388 17 18.6321V23.163C17 23.43 16.8946 23.6861 16.7071 23.8749C16.5196 24.0637 16.2652 24.1698 16 24.1698C15.7348 24.1698 15.4804 24.0637 15.2929 23.8749C15.1054 23.6861 15 23.43 15 23.163V19.0107L12.969 16.6748L12.925 16.6244C12.685 16.3556 12.285 15.9045 12.111 15.3729C12.005 15.0456 11.971 14.6681 12.086 14.2694C12.196 13.8827 12.424 13.5545 12.706 13.2756L12.72 13.2625L16.313 9.84521C16.4351 9.72906 16.5843 9.64575 16.7469 9.60299C16.9094 9.56023 17.0801 9.55939 17.243 9.60055ZM6 21.1492C6 20.3481 6.31607 19.5798 6.87868 19.0134C7.44129 18.4469 8.20435 18.1287 9 18.1287C9.79565 18.1287 10.5587 18.4469 11.1213 19.0134C11.6839 19.5798 12 20.3481 12 21.1492C12 21.9504 11.6839 22.7186 11.1213 23.2851C10.5587 23.8516 9.79565 24.1698 9 24.1698C8.20435 24.1698 7.44129 23.8516 6.87868 23.2851C6.31607 22.7186 6 21.9504 6 21.1492ZM9 16.1149C7.67392 16.1149 6.40215 16.6453 5.46447 17.5895C4.52678 18.5336 4 19.8141 4 21.1492C4 22.4844 4.52678 23.7649 5.46447 24.709C6.40215 25.6531 7.67392 26.1835 9 26.1835C10.3261 26.1835 11.5979 25.6531 12.5355 24.709C13.4732 23.7649 14 22.4844 14 21.1492C14 19.8141 13.4732 18.5336 12.5355 17.5895C11.5979 16.6453 10.3261 16.1149 9 16.1149ZM20 21.1492C20 20.3481 20.3161 19.5798 20.8787 19.0134C21.4413 18.4469 22.2044 18.1287 23 18.1287C23.7956 18.1287 24.5587 18.4469 25.1213 19.0134C25.6839 19.5798 26 20.3481 26 21.1492C26 21.9504 25.6839 22.7186 25.1213 23.2851C24.5587 23.8516 23.7956 24.1698 23 24.1698C22.2044 24.1698 21.4413 23.8516 20.8787 23.2851C20.3161 22.7186 20 21.9504 20 21.1492ZM23 16.1149C21.6739 16.1149 20.4021 16.6453 19.4645 17.5895C18.5268 18.5336 18 19.8141 18 21.1492C18 22.4844 18.5268 23.7649 19.4645 24.709C20.4021 25.6531 21.6739 26.1835 23 26.1835C24.3261 26.1835 25.5979 25.6531 26.5355 24.709C27.4732 23.7649 28 22.4844 28 21.1492C28 19.8141 27.4732 18.5336 26.5355 17.5895C25.5979 16.6453 24.3261 16.1149 23 16.1149Z" fill="white"/>
</svg>
