<?xml version="1.0" encoding="UTF-8" standalone="no"?>
<svg
   xmlns:dc="http://purl.org/dc/elements/1.1/"
   xmlns:cc="http://creativecommons.org/ns#"
   xmlns:rdf="http://www.w3.org/1999/02/22-rdf-syntax-ns#"
   xmlns:svg="http://www.w3.org/2000/svg"
   xmlns="http://www.w3.org/2000/svg"
   viewBox="0 0 32 32"
   height="32"
   width="32"
   xml:space="preserve"
   id="svg2"
   version="1.1"><metadata
     id="metadata8"><rdf:RDF><cc:Work
         rdf:about=""><dc:format>image/svg+xml</dc:format><dc:type
           rdf:resource="http://purl.org/dc/dcmitype/StillImage" /></cc:Work></rdf:RDF></metadata><defs
     id="defs6" /><g
     transform="matrix(1.3333333,0,0,-1.3333333,0,32)"
     id="g10"><g
       transform="translate(4,8)"
       id="g12"><path
         id="path14"
         style="fill:#c1c2c7;fill-opacity:1;fill-rule:nonzero;stroke:none"
         d="M 0,6 C -1.10457,6 -2,5.104569 -2,4 -2,2.895431 -1.10457,2 0,2 Z M 16,2 c 1.10457,0 2,0.895431 2,2 0,1.104569 -0.89543,2 -2,2 z M 5e-4,2 c 1.104569,0 2,0.895431 2,2 0,1.104569 -0.895431,2 -2,2 z m 7.998999,4 c -1.104569,0 -2,-0.895431 -2,-2 0,-1.104569 0.895431,-2 2,-2 z m 10e-4,-4 c 1.104569,0 2,0.895431 2,2 0,1.104569 -0.895431,2 -2,2 z m 7.998999,4 c -1.104569,0 -2,-0.895431 -2,-2 0,-1.104569 0.895431,-2 2,-2 z M 0,2 H 5e-4 V 6 H 0 Z m 7.999499,0 h 10e-4 v 4 h -10e-4 z m 7.999999,0 H 16 v 4 h -5.02e-4 z" /></g></g></svg>