<svg width="32" height="33" viewBox="0 0 32 33" fill="none" xmlns="http://www.w3.org/2000/svg">
<ellipse cx="16" cy="16.1098" rx="16" ry="16.1098" fill="#D71D24"/>
<path fill-rule="evenodd" clip-rule="evenodd" d="M20 10.0686C20.5304 10.0686 21.0391 9.85645 21.4142 9.47881C21.7893 9.10116 22 8.58896 22 8.05489C22 7.52082 21.7893 7.00862 21.4142 6.63097C21.0391 6.25333 20.5304 6.04117 20 6.04117C19.4696 6.04117 18.9609 6.25333 18.5858 6.63097C18.2107 7.00862 18 7.52082 18 8.05489C18 8.58896 18.2107 9.10116 18.5858 9.47881C18.9609 9.85645 19.4696 10.0686 20 10.0686ZM17.243 9.59539C17.4058 9.63646 17.5557 9.71812 17.6789 9.83285C17.8021 9.94757 17.8946 10.0917 17.948 10.2519C18.13 10.7986 18.384 11.2768 18.697 11.6796C19.559 12.7871 20.95 13.4194 22.836 13.1033C22.9673 13.0772 23.1025 13.0779 23.2336 13.1054C23.3646 13.1328 23.4888 13.1865 23.5989 13.2632C23.709 13.3399 23.8026 13.4381 23.8743 13.5519C23.946 13.6658 23.9942 13.7929 24.0162 13.9259C24.0381 14.0588 24.0334 14.1949 24.0021 14.3259C23.9709 14.457 23.9139 14.5804 23.8344 14.6889C23.7549 14.7973 23.6547 14.8886 23.5395 14.9573C23.4243 15.026 23.2966 15.0707 23.164 15.0888C21.028 15.4473 19.179 14.9005 17.844 13.6983L15.129 16.0967L16.752 17.9634C16.9118 18.147 17 18.3828 17 18.6269V23.1578C17 23.4248 16.8946 23.6809 16.7071 23.8698C16.5196 24.0586 16.2652 24.1647 16 24.1647C15.7348 24.1647 15.4804 24.0586 15.2929 23.8698C15.1054 23.6809 15 23.4248 15 23.1578V19.0055L12.969 16.6696L12.925 16.6193C12.685 16.3504 12.285 15.8993 12.111 15.3677C12.005 15.0405 11.971 14.6629 12.086 14.2642C12.196 13.8776 12.424 13.5493 12.706 13.2704L12.72 13.2573L16.313 9.84005C16.4351 9.7239 16.5843 9.6406 16.7469 9.59784C16.9094 9.55507 17.0801 9.55423 17.243 9.59539ZM6 21.1441C6 20.343 6.31607 19.5747 6.87868 19.0082C7.44129 18.4417 8.20435 18.1235 9 18.1235C9.79565 18.1235 10.5587 18.4417 11.1213 19.0082C11.6839 19.5747 12 20.343 12 21.1441C12 21.9452 11.6839 22.7135 11.1213 23.28C10.5587 23.8464 9.79565 24.1647 9 24.1647C8.20435 24.1647 7.44129 23.8464 6.87868 23.28C6.31607 22.7135 6 21.9452 6 21.1441ZM9 16.1098C7.67392 16.1098 6.40215 16.6402 5.46447 17.5843C4.52678 18.5284 4 19.8089 4 21.1441C4 22.4793 4.52678 23.7598 5.46447 24.7039C6.40215 25.648 7.67392 26.1784 9 26.1784C10.3261 26.1784 11.5979 25.648 12.5355 24.7039C13.4732 23.7598 14 22.4793 14 21.1441C14 19.8089 13.4732 18.5284 12.5355 17.5843C11.5979 16.6402 10.3261 16.1098 9 16.1098ZM20 21.1441C20 20.343 20.3161 19.5747 20.8787 19.0082C21.4413 18.4417 22.2044 18.1235 23 18.1235C23.7956 18.1235 24.5587 18.4417 25.1213 19.0082C25.6839 19.5747 26 20.343 26 21.1441C26 21.9452 25.6839 22.7135 25.1213 23.28C24.5587 23.8464 23.7956 24.1647 23 24.1647C22.2044 24.1647 21.4413 23.8464 20.8787 23.28C20.3161 22.7135 20 21.9452 20 21.1441ZM23 16.1098C21.6739 16.1098 20.4021 16.6402 19.4645 17.5843C18.5268 18.5284 18 19.8089 18 21.1441C18 22.4793 18.5268 23.7598 19.4645 24.7039C20.4021 25.648 21.6739 26.1784 23 26.1784C24.3261 26.1784 25.5979 25.648 26.5355 24.7039C27.4732 23.7598 28 22.4793 28 21.1441C28 19.8089 27.4732 18.5284 26.5355 17.5843C25.5979 16.6402 24.3261 16.1098 23 16.1098Z" fill="white"/>
</svg>
